<?xml version="1.0" encoding="UTF-8" standalone="no"?>
<!-- Created with Inkscape (http://www.inkscape.org/) -->

<svg
   width="100mm"
   height="100mm"
   viewBox="0 0 100 100"
   version="1.1"
   id="svg1"
   inkscape:version="1.4.2 (f4327f4, 2025-05-13)"
   sodipodi:docname="drawing-1.svg"
   xmlns:inkscape="http://www.inkscape.org/namespaces/inkscape"
   xmlns:sodipodi="http://sodipodi.sourceforge.net/DTD/sodipodi-0.dtd"
   xmlns="http://www.w3.org/2000/svg"
   xmlns:svg="http://www.w3.org/2000/svg">
  <sodipodi:namedview
     id="namedview1"
     pagecolor="#ffffff"
     bordercolor="#000000"
     borderopacity="0.25"
     inkscape:showpageshadow="2"
     inkscape:pageopacity="0.0"
     inkscape:pagecheckerboard="0"
     inkscape:deskcolor="#d1d1d1"
     inkscape:document-units="mm"
     inkscape:zoom="0.72515432"
     inkscape:cx="397.15684"
     inkscape:cy="147.5548"
     inkscape:window-width="1920"
     inkscape:window-height="1009"
     inkscape:window-x="-8"
     inkscape:window-y="-8"
     inkscape:window-maximized="1"
     inkscape:current-layer="layer1" />
  <defs
     id="defs1" />
  <g
     inkscape:label="Layer 1"
     inkscape:groupmode="layer"
     id="layer1"
     transform="translate(0,-197)">
    <path
       d="m 13.51847,203.47522 -0.02521,1.57808 -0.01513,1.49741 0.01513,3.46876 h -3.075496 l 0.03025,-4.01831 -0.01512,-1.36633 -0.01513,-1.15961 -0.6655175,0.0151 -0.9528996,0.0202 -0.1411703,0.005 q -0.2420063,0 -0.2420063,-0.1815 0,-0.16134 0.1411703,-0.18151 0.040334,-0.0101 0.2470481,-0.0151 h 6.1862843 q 0.322675,0.005 0.383177,0.0302 0.100836,0.0403 0.100836,0.17142 0,0.17142 -0.257132,0.17142 l -0.438636,-0.0151 -1.159613,-0.0202 z m 9.321366,2.03184 -0.01008,-1.41674 -0.01008,-0.63023 q 0,-0.24705 0.04033,-0.33276 0.04034,-0.0857 0.166379,-0.0857 0.191589,0 0.191589,0.30755 l -0.005,0.34285 -0.01008,1.11927 -0.01513,1.79993 0.01513,1.87554 0.01008,1.31591 q 0,0.18151 -0.04033,0.24705 -0.03529,0.0655 -0.146213,0.0655 -0.115961,0 -0.161337,-0.0706 -0.04033,-0.0706 -0.04033,-0.25713 l 0.005,-0.42856 0.01513,-2.53098 v -0.93777 l -0.191588,-0.005 -0.983151,-0.0202 -2.162931,0.0252 0.005,1.39153 0.03025,2.7377 H 16.45188 l 0.02521,-4.37124 -0.01008,-1.15457 -0.005,-1.06382 -0.01008,-0.29242 h 3.090621 l -0.005,0.26217 -0.02521,2.10747 q 0.514263,0.0353 1.633542,0.0353 1.028527,0 1.694044,-0.0353 z m 4.879543,-2.36964 v 0.35292 l -0.02521,2.76291 0.02017,3.76622 h -3.080538 l 0.03529,-4.11915 -0.03529,-2.51585 0.005,-0.24705 z m 1.456163,5.71235 q 0.09075,0 0.211755,0.13613 0.378135,0.41343 0.922649,0.66552 0.549556,0.24705 1.083987,0.24705 0.58989,0 0.58989,-0.35797 0,-0.22688 -0.206714,-0.50922 -0.206714,-0.28738 -0.988192,-1.12936 -0.98315,-1.06382 -1.310867,-1.57809 -0.433595,-0.68064 -0.433595,-1.29574 0,-0.92769 0.826855,-1.51758 0.811729,-0.57981 2.001593,-0.57981 0.831897,0 1.527665,0.3378 0.262173,0.13109 0.44872,0.30251 0.191588,0.17142 0.191588,0.28738 0,0.0555 -0.05546,0.10588 -0.05042,0.0454 -0.105878,0.0454 -0.08571,0 -0.252089,-0.1563 -0.272258,-0.25713 -0.715936,-0.42351 -0.443678,-0.17142 -0.852063,-0.17142 -0.25209,0 -0.413428,0.11092 -0.156295,0.10588 -0.156295,0.2773 0,0.20671 0.19663,0.50418 0.19663,0.29746 0.665517,0.79156 1.482288,1.57808 1.815047,2.12764 0.347884,0.57981 0.347884,1.11928 0,0.4588 -0.247048,0.86719 -0.247048,0.40838 -0.685685,0.67056 -0.836938,0.49913 -2.041927,0.49913 -1.109196,0 -1.951176,-0.57476 -0.58989,-0.40334 -0.58989,-0.63023 0,-0.0655 0.05042,-0.11596 0.05546,-0.0555 0.126045,-0.0555 z m 12.602661,-5.71235 v 0.35292 l -0.02521,2.76291 0.02017,3.76622 h -3.080538 l 0.03529,-4.11915 -0.03529,-2.51585 0.005,-0.24705 z m 1.456164,5.71235 q 0.09075,0 0.211755,0.13613 0.378135,0.41343 0.922649,0.66552 0.549556,0.24705 1.083986,0.24705 0.58989,0 0.58989,-0.35797 0,-0.22688 -0.206713,-0.50922 -0.206714,-0.28738 -0.988192,-1.12936 -0.983151,-1.06382 -1.310868,-1.57809 -0.433594,-0.68064 -0.433594,-1.29574 0,-0.92769 0.826855,-1.51758 0.811729,-0.57981 2.001593,-0.57981 0.831896,0 1.527664,0.3378 0.262174,0.13109 0.44872,0.30251 0.191588,0.17142 0.191588,0.28738 0,0.0555 -0.05546,0.10588 -0.05042,0.0454 -0.105878,0.0454 -0.08571,0 -0.25209,-0.1563 -0.272257,-0.25713 -0.715935,-0.42351 -0.443678,-0.17142 -0.852064,-0.17142 -0.25209,0 -0.413427,0.11092 -0.156296,0.10588 -0.156296,0.2773 0,0.20671 0.19663,0.50418 0.19663,0.29746 0.665517,0.79156 1.482289,1.57808 1.815047,2.12764 0.347884,0.57981 0.347884,1.11928 0,0.4588 -0.247048,0.86719 -0.247048,0.40838 -0.685684,0.67056 -0.836938,0.49913 -2.041928,0.49913 -1.109195,0 -1.951175,-0.57476 -0.58989,-0.40334 -0.58989,-0.63023 0,-0.0655 0.05042,-0.11596 0.05546,-0.0555 0.126045,-0.0555 z m 13.091715,-6.12578 4.033437,7.29548 h -3.493965 l -0.478971,-0.92265 H 54.69254 l -1.492372,-0.005 -0.25209,-0.005 -0.332759,0.6151 q -0.146212,0.2773 -0.206713,0.34284 -0.05546,0.0706 -0.14117,0.0706 -0.171422,0 -0.171422,-0.15125 0,-0.0655 0.0958,-0.24201 0.100836,-0.1815 0.690726,-1.17978 l 3.050287,-5.13759 z m -1.567999,3.30238 -0.882314,1.48733 -0.705852,1.22515 1.512539,0.0202 1.517581,-0.0151 z m 13.893359,-2.55115 -0.02521,1.57808 -0.01512,1.49741 0.01512,3.46876 h -3.075496 l 0.03025,-4.01831 -0.01513,-1.36633 -0.01513,-1.15961 -0.665517,0.0151 -0.952899,0.0202 -0.141171,0.005 q -0.242006,0 -0.242006,-0.1815 0,-0.16134 0.14117,-0.18151 0.04033,-0.0101 0.247048,-0.0151 h 6.186285 q 0.322675,0.005 0.383177,0.0302 0.100835,0.0403 0.100835,0.17142 0,0.17142 -0.257131,0.17142 l -0.438636,-0.0151 -1.159614,-0.0202 z m 5.99378,1.8705 q -0.01008,0.23193 -0.01008,0.56469 v 0.3025 l 0.03529,3.47884 1.709169,-0.0202 1.210031,-0.0151 q 0.297466,0 0.297466,0.18151 0,0.15125 -0.151254,0.17142 -0.03529,0.005 -0.418469,0.0101 h -5.727481 l 0.005,-0.26217 0.005,-1.68396 0.02017,-1.80497 -0.04033,-3.13095 h 5.344304 q 0.357968,0 0.408386,0.0151 0.115961,0.0303 0.115961,0.17142 0,0.17647 -0.221839,0.17647 h -0.03529 l -2.52594,-0.0353 -0.02017,1.56296 0.549556,0.005 1.764629,-0.0302 0.388218,-0.005 q 0.211755,0 0.277299,0.0353 0.07059,0.0353 0.07059,0.14117 0,0.19663 -0.332759,0.19663 l -0.398302,-0.0101 z m 4.133357,3.50405 q 0.09075,0 0.211755,0.13613 0.378135,0.41343 0.922649,0.66552 0.549556,0.24705 1.083986,0.24705 0.589891,0 0.589891,-0.35797 0,-0.22688 -0.206714,-0.50922 -0.206714,-0.28738 -0.988192,-1.12936 -0.983151,-1.06382 -1.310867,-1.57809 -0.433595,-0.68064 -0.433595,-1.29574 0,-0.92769 0.826855,-1.51758 0.811729,-0.57981 2.001593,-0.57981 0.831897,0 1.527665,0.3378 0.262173,0.13109 0.448719,0.30251 0.191589,0.17142 0.191589,0.28738 0,0.0555 -0.05546,0.10588 -0.05042,0.0454 -0.105878,0.0454 -0.08571,0 -0.25209,-0.1563 -0.272257,-0.25713 -0.715935,-0.42351 -0.443678,-0.17142 -0.852063,-0.17142 -0.25209,0 -0.413428,0.11092 -0.156295,0.10588 -0.156295,0.2773 0,0.20671 0.19663,0.50418 0.19663,0.29746 0.665517,0.79156 1.482288,1.57808 1.815047,2.12764 0.347884,0.57981 0.347884,1.11928 0,0.4588 -0.247048,0.86719 -0.247048,0.40838 -0.685685,0.67056 -0.836938,0.49913 -2.041927,0.49913 -1.109196,0 -1.951176,-0.57476 -0.58989,-0.40334 -0.58989,-0.63023 0,-0.0655 0.05042,-0.11596 0.05546,-0.0555 0.126045,-0.0555 z m 10.849029,-5.37455 -0.02521,1.57808 -0.01513,1.49741 0.01513,3.46876 h -3.075496 l 0.03025,-4.01831 -0.01512,-1.36633 -0.01513,-1.15961 -0.665517,0.0151 -0.9529,0.0202 -0.14117,0.005 q -0.242006,0 -0.242006,-0.1815 0,-0.16134 0.14117,-0.18151 0.04033,-0.0101 0.247048,-0.0151 h 6.186285 q 0.322675,0.005 0.383176,0.0302 0.100836,0.0403 0.100836,0.17142 0,0.17142 -0.257131,0.17142 l -0.438637,-0.0151 -1.159613,-0.0202 z"
       id="text1"
       style="font-size:10.3256px;line-height:0.8;font-family:Broadway;-inkscape-font-specification:Broadway;text-align:center;letter-spacing:0.35201px;text-anchor:middle;stroke:#000000;stroke-width:0.997826"
       aria-label="THIS IS A TEST" />
    <path
       d="m 13.51847,244.00014 -0.02521,1.57808 -0.01513,1.49741 0.01513,3.46876 h -3.075496 l 0.03025,-4.01831 -0.01512,-1.36633 -0.01513,-1.15961 -0.6655175,0.0151 -0.9528996,0.0202 -0.1411703,0.005 q -0.2420063,0 -0.2420063,-0.1815 0,-0.16134 0.1411703,-0.18151 0.040334,-0.0101 0.2470481,-0.0151 h 6.1862843 q 0.322675,0.005 0.383177,0.0302 0.100836,0.0403 0.100836,0.17142 0,0.17142 -0.257132,0.17142 l -0.438636,-0.0151 -1.159613,-0.0202 z m 9.321366,2.03184 -0.01008,-1.41675 -0.01008,-0.63022 q 0,-0.24705 0.04033,-0.33276 0.04034,-0.0857 0.166379,-0.0857 0.191589,0 0.191589,0.30755 l -0.005,0.34284 -0.01008,1.11928 -0.01513,1.79992 0.01513,1.87555 0.01008,1.31591 q 0,0.18151 -0.04033,0.24705 -0.03529,0.0655 -0.146213,0.0655 -0.115961,0 -0.161337,-0.0706 -0.04033,-0.0706 -0.04033,-0.25713 l 0.005,-0.42856 0.01513,-2.53098 v -0.93777 l -0.191588,-0.005 -0.983151,-0.0202 -2.162931,0.0252 0.005,1.39153 0.03025,2.7377 H 16.45188 l 0.02521,-4.37124 -0.01008,-1.15457 -0.005,-1.06382 -0.01008,-0.29242 h 3.090621 l -0.005,0.26217 -0.02521,2.10747 q 0.514263,0.0353 1.633542,0.0353 1.028527,0 1.694044,-0.0353 z m 4.879543,-2.36964 v 0.35292 l -0.02521,2.76291 0.02017,3.76622 h -3.080538 l 0.03529,-4.11915 -0.03529,-2.51586 0.005,-0.24704 z m 1.456163,5.71235 q 0.09075,0 0.211755,0.13613 0.378135,0.41343 0.922649,0.66552 0.549556,0.24704 1.083987,0.24704 0.58989,0 0.58989,-0.35796 0,-0.22688 -0.206714,-0.50922 -0.206714,-0.28739 -0.988192,-1.12937 -0.98315,-1.06382 -1.310867,-1.57808 -0.433595,-0.68064 -0.433595,-1.29574 0,-0.92769 0.826855,-1.51758 0.811729,-0.57981 2.001593,-0.57981 0.831897,0 1.527665,0.3378 0.262173,0.13109 0.44872,0.30251 0.191588,0.17142 0.191588,0.28738 0,0.0555 -0.05546,0.10588 -0.05042,0.0454 -0.105878,0.0454 -0.08571,0 -0.252089,-0.1563 -0.272258,-0.25713 -0.715936,-0.42351 -0.443678,-0.17142 -0.852063,-0.17142 -0.25209,0 -0.413428,0.11092 -0.156295,0.10588 -0.156295,0.2773 0,0.20671 0.19663,0.50418 0.19663,0.29746 0.665517,0.79156 1.482288,1.57808 1.815047,2.12764 0.347884,0.5798 0.347884,1.11928 0,0.4588 -0.247048,0.86718 -0.247048,0.40839 -0.685685,0.67056 -0.836938,0.49914 -2.041927,0.49914 -1.109196,0 -1.951176,-0.57476 -0.58989,-0.40335 -0.58989,-0.63023 0,-0.0655 0.05042,-0.11596 0.05546,-0.0555 0.126045,-0.0555 z m 12.602661,-5.71235 v 0.35292 l -0.02521,2.76291 0.02017,3.76622 h -3.080538 l 0.03529,-4.11915 -0.03529,-2.51586 0.005,-0.24704 z m 1.456164,5.71235 q 0.09075,0 0.211755,0.13613 0.378135,0.41343 0.922649,0.66552 0.549556,0.24704 1.083986,0.24704 0.58989,0 0.58989,-0.35796 0,-0.22688 -0.206713,-0.50922 -0.206714,-0.28739 -0.988192,-1.12937 -0.983151,-1.06382 -1.310868,-1.57808 -0.433594,-0.68064 -0.433594,-1.29574 0,-0.92769 0.826855,-1.51758 0.811729,-0.57981 2.001593,-0.57981 0.831896,0 1.527664,0.3378 0.262174,0.13109 0.44872,0.30251 0.191588,0.17142 0.191588,0.28738 0,0.0555 -0.05546,0.10588 -0.05042,0.0454 -0.105878,0.0454 -0.08571,0 -0.25209,-0.1563 -0.272257,-0.25713 -0.715935,-0.42351 -0.443678,-0.17142 -0.852064,-0.17142 -0.25209,0 -0.413427,0.11092 -0.156296,0.10588 -0.156296,0.2773 0,0.20671 0.19663,0.50418 0.19663,0.29746 0.665517,0.79156 1.482289,1.57808 1.815047,2.12764 0.347884,0.5798 0.347884,1.11928 0,0.4588 -0.247048,0.86718 -0.247048,0.40839 -0.685684,0.67056 -0.836938,0.49914 -2.041928,0.49914 -1.109195,0 -1.951175,-0.57476 -0.58989,-0.40335 -0.58989,-0.63023 0,-0.0655 0.05042,-0.11596 0.05546,-0.0555 0.126045,-0.0555 z m 13.091715,-6.12578 4.033437,7.29548 h -3.493965 l -0.478971,-0.92265 H 54.69254 l -1.492372,-0.005 -0.25209,-0.005 -0.332759,0.61509 q -0.146212,0.2773 -0.206713,0.34285 -0.05546,0.0706 -0.14117,0.0706 -0.171422,0 -0.171422,-0.15125 0,-0.0656 0.0958,-0.24201 0.100836,-0.1815 0.690726,-1.17978 l 3.050287,-5.13759 z m -1.567999,3.30237 -0.882314,1.48733 -0.705852,1.22516 1.512539,0.0202 1.517581,-0.0151 z m 13.893359,-2.55114 -0.02521,1.57808 -0.01512,1.49741 0.01512,3.46876 h -3.075496 l 0.03025,-4.01831 -0.01513,-1.36633 -0.01513,-1.15961 -0.665517,0.0151 -0.952899,0.0202 -0.141171,0.005 q -0.242006,0 -0.242006,-0.1815 0,-0.16134 0.14117,-0.18151 0.04033,-0.0101 0.247048,-0.0151 h 6.186285 q 0.322675,0.005 0.383177,0.0302 0.100835,0.0403 0.100835,0.17142 0,0.17142 -0.257131,0.17142 l -0.438636,-0.0151 -1.159614,-0.0202 z m 5.99378,1.8705 q -0.01008,0.23192 -0.01008,0.56468 v 0.30251 l 0.03529,3.47884 1.709169,-0.0202 1.210031,-0.0151 q 0.297466,0 0.297466,0.1815 0,0.15126 -0.151254,0.17142 -0.03529,0.005 -0.418469,0.0101 h -5.727481 l 0.005,-0.26218 0.005,-1.68396 0.02017,-1.80496 -0.04033,-3.13095 h 5.344304 q 0.357968,0 0.408386,0.0151 0.115961,0.0302 0.115961,0.17142 0,0.17646 -0.221839,0.17646 h -0.03529 l -2.52594,-0.0353 -0.02017,1.56296 0.549556,0.005 1.764629,-0.0302 0.388218,-0.005 q 0.211755,0 0.277299,0.0353 0.07059,0.0353 0.07059,0.14117 0,0.19663 -0.332759,0.19663 l -0.398302,-0.0101 z m 4.133357,3.50405 q 0.09075,0 0.211755,0.13613 0.378135,0.41343 0.922649,0.66552 0.549556,0.24704 1.083986,0.24704 0.589891,0 0.589891,-0.35796 0,-0.22688 -0.206714,-0.50922 -0.206714,-0.28739 -0.988192,-1.12937 -0.983151,-1.06382 -1.310867,-1.57808 -0.433595,-0.68064 -0.433595,-1.29574 0,-0.92769 0.826855,-1.51758 0.811729,-0.57981 2.001593,-0.57981 0.831897,0 1.527665,0.3378 0.262173,0.13109 0.448719,0.30251 0.191589,0.17142 0.191589,0.28738 0,0.0555 -0.05546,0.10588 -0.05042,0.0454 -0.105878,0.0454 -0.08571,0 -0.25209,-0.1563 -0.272257,-0.25713 -0.715935,-0.42351 -0.443678,-0.17142 -0.852063,-0.17142 -0.25209,0 -0.413428,0.11092 -0.156295,0.10588 -0.156295,0.2773 0,0.20671 0.19663,0.50418 0.19663,0.29746 0.665517,0.79156 1.482288,1.57808 1.815047,2.12764 0.347884,0.5798 0.347884,1.11928 0,0.4588 -0.247048,0.86718 -0.247048,0.40839 -0.685685,0.67056 -0.836938,0.49914 -2.041927,0.49914 -1.109196,0 -1.951176,-0.57476 -0.58989,-0.40335 -0.58989,-0.63023 0,-0.0655 0.05042,-0.11596 0.05546,-0.0555 0.126045,-0.0555 z m 10.849029,-5.37455 -0.02521,1.57808 -0.01513,1.49741 0.01513,3.46876 h -3.075496 l 0.03025,-4.01831 -0.01512,-1.36633 -0.01513,-1.15961 -0.665517,0.0151 -0.9529,0.0202 -0.14117,0.005 q -0.242006,0 -0.242006,-0.1815 0,-0.16134 0.14117,-0.18151 0.04033,-0.0101 0.247048,-0.0151 h 6.186285 q 0.322675,0.005 0.383176,0.0302 0.100836,0.0403 0.100836,0.17142 0,0.17142 -0.257131,0.17142 l -0.438637,-0.0151 -1.159613,-0.0202 z"
       id="text2"
       style="font-size:10.3256px;line-height:0.8;font-family:Broadway;-inkscape-font-specification:Broadway;text-align:center;letter-spacing:0.35201px;text-anchor:middle;stroke:#000000;stroke-width:0.997826"
       aria-label="THIS IS A TEST" />
    <path
       d="m 13.51847,284.74588 -0.02521,1.57808 -0.01513,1.49741 0.01513,3.46876 h -3.075496 l 0.03025,-4.01831 -0.01512,-1.36633 -0.01513,-1.15961 -0.6655175,0.0151 -0.9528996,0.0202 -0.1411703,0.005 q -0.2420063,0 -0.2420063,-0.1815 0,-0.16134 0.1411703,-0.18151 0.040334,-0.0101 0.2470481,-0.0151 h 6.1862843 q 0.322675,0.005 0.383177,0.0303 0.100836,0.0403 0.100836,0.17142 0,0.17142 -0.257132,0.17142 l -0.438636,-0.0151 -1.159613,-0.0202 z m 9.321366,2.03184 -0.01008,-1.41674 -0.01008,-0.63023 q 0,-0.24704 0.04033,-0.33276 0.04034,-0.0857 0.166379,-0.0857 0.191589,0 0.191589,0.30755 l -0.005,0.34285 -0.01008,1.11927 -0.01513,1.79993 0.01513,1.87554 0.01008,1.31591 q 0,0.18151 -0.04033,0.24705 -0.03529,0.0655 -0.146213,0.0655 -0.115961,0 -0.161337,-0.0706 -0.04033,-0.0706 -0.04033,-0.25713 l 0.005,-0.42855 0.01513,-2.53099 v -0.93777 l -0.191588,-0.005 -0.983151,-0.0202 -2.162931,0.0252 0.005,1.39153 0.03025,2.7377 H 16.45188 l 0.02521,-4.37124 -0.01008,-1.15457 -0.005,-1.06382 -0.01008,-0.29242 h 3.090621 l -0.005,0.26217 -0.02521,2.10747 q 0.514263,0.0353 1.633542,0.0353 1.028527,0 1.694044,-0.0353 z m 4.879543,-2.36964 v 0.35292 l -0.02521,2.76291 0.02017,3.76622 h -3.080538 l 0.03529,-4.11915 -0.03529,-2.51585 0.005,-0.24705 z m 1.456163,5.71235 q 0.09075,0 0.211755,0.13613 0.378135,0.41343 0.922649,0.66552 0.549556,0.24705 1.083987,0.24705 0.58989,0 0.58989,-0.35797 0,-0.22688 -0.206714,-0.50922 -0.206714,-0.28738 -0.988192,-1.12936 -0.98315,-1.06382 -1.310867,-1.57809 -0.433595,-0.68064 -0.433595,-1.29574 0,-0.92769 0.826855,-1.51758 0.811729,-0.57981 2.001593,-0.57981 0.831897,0 1.527665,0.3378 0.262173,0.13109 0.44872,0.30251 0.191588,0.17142 0.191588,0.28739 0,0.0555 -0.05546,0.10587 -0.05042,0.0454 -0.105878,0.0454 -0.08571,0 -0.252089,-0.1563 -0.272258,-0.25713 -0.715936,-0.42351 -0.443678,-0.17142 -0.852063,-0.17142 -0.25209,0 -0.413428,0.11092 -0.156295,0.10588 -0.156295,0.2773 0,0.20671 0.19663,0.50418 0.19663,0.29747 0.665517,0.79156 1.482288,1.57808 1.815047,2.12764 0.347884,0.57981 0.347884,1.11928 0,0.4588 -0.247048,0.86719 -0.247048,0.40838 -0.685685,0.67056 -0.836938,0.49913 -2.041927,0.49913 -1.109196,0 -1.951176,-0.57476 -0.58989,-0.40334 -0.58989,-0.63023 0,-0.0655 0.05042,-0.11596 0.05546,-0.0555 0.126045,-0.0555 z m 12.602661,-5.71235 v 0.35292 l -0.02521,2.76291 0.02017,3.76622 h -3.080538 l 0.03529,-4.11915 -0.03529,-2.51585 0.005,-0.24705 z m 1.456164,5.71235 q 0.09075,0 0.211755,0.13613 0.378135,0.41343 0.922649,0.66552 0.549556,0.24705 1.083986,0.24705 0.58989,0 0.58989,-0.35797 0,-0.22688 -0.206713,-0.50922 -0.206714,-0.28738 -0.988192,-1.12936 -0.983151,-1.06382 -1.310868,-1.57809 -0.433594,-0.68064 -0.433594,-1.29574 0,-0.92769 0.826855,-1.51758 0.811729,-0.57981 2.001593,-0.57981 0.831896,0 1.527664,0.3378 0.262174,0.13109 0.44872,0.30251 0.191588,0.17142 0.191588,0.28739 0,0.0555 -0.05546,0.10587 -0.05042,0.0454 -0.105878,0.0454 -0.08571,0 -0.25209,-0.1563 -0.272257,-0.25713 -0.715935,-0.42351 -0.443678,-0.17142 -0.852064,-0.17142 -0.25209,0 -0.413427,0.11092 -0.156296,0.10588 -0.156296,0.2773 0,0.20671 0.19663,0.50418 0.19663,0.29747 0.665517,0.79156 1.482289,1.57808 1.815047,2.12764 0.347884,0.57981 0.347884,1.11928 0,0.4588 -0.247048,0.86719 -0.247048,0.40838 -0.685684,0.67056 -0.836938,0.49913 -2.041928,0.49913 -1.109195,0 -1.951175,-0.57476 -0.58989,-0.40334 -0.58989,-0.63023 0,-0.0655 0.05042,-0.11596 0.05546,-0.0555 0.126045,-0.0555 z m 13.091715,-6.12578 4.033437,7.29548 h -3.493965 l -0.478971,-0.92265 H 54.69254 l -1.492372,-0.005 -0.25209,-0.005 -0.332759,0.6151 q -0.146212,0.2773 -0.206713,0.34284 -0.05546,0.0706 -0.14117,0.0706 -0.171422,0 -0.171422,-0.15125 0,-0.0655 0.0958,-0.24201 0.100836,-0.1815 0.690726,-1.17978 l 3.050287,-5.13759 z m -1.567999,3.30238 -0.882314,1.48733 -0.705852,1.22515 1.512539,0.0202 1.517581,-0.0151 z m 13.893359,-2.55115 -0.02521,1.57808 -0.01512,1.49741 0.01512,3.46876 h -3.075496 l 0.03025,-4.01831 -0.01513,-1.36633 -0.01513,-1.15961 -0.665517,0.0151 -0.952899,0.0202 -0.141171,0.005 q -0.242006,0 -0.242006,-0.1815 0,-0.16134 0.14117,-0.18151 0.04033,-0.0101 0.247048,-0.0151 h 6.186285 q 0.322675,0.005 0.383177,0.0303 0.100835,0.0403 0.100835,0.17142 0,0.17142 -0.257131,0.17142 l -0.438636,-0.0151 -1.159614,-0.0202 z m 5.99378,1.87051 q -0.01008,0.23192 -0.01008,0.56468 v 0.3025 l 0.03529,3.47884 1.709169,-0.0202 1.210031,-0.0151 q 0.297466,0 0.297466,0.18151 0,0.15125 -0.151254,0.17142 -0.03529,0.005 -0.418469,0.0101 h -5.727481 l 0.005,-0.26217 0.005,-1.68396 0.02017,-1.80497 -0.04033,-3.13095 h 5.344304 q 0.357968,0 0.408386,0.0151 0.115961,0.0302 0.115961,0.17142 0,0.17647 -0.221839,0.17647 h -0.03529 l -2.52594,-0.0353 -0.02017,1.56296 0.549556,0.005 1.764629,-0.0302 0.388218,-0.005 q 0.211755,0 0.277299,0.0353 0.07059,0.0353 0.07059,0.14117 0,0.19663 -0.332759,0.19663 l -0.398302,-0.0101 z m 4.133357,3.50404 q 0.09075,0 0.211755,0.13613 0.378135,0.41343 0.922649,0.66552 0.549556,0.24705 1.083986,0.24705 0.589891,0 0.589891,-0.35797 0,-0.22688 -0.206714,-0.50922 -0.206714,-0.28738 -0.988192,-1.12936 -0.983151,-1.06382 -1.310867,-1.57809 -0.433595,-0.68064 -0.433595,-1.29574 0,-0.92769 0.826855,-1.51758 0.811729,-0.57981 2.001593,-0.57981 0.831897,0 1.527665,0.3378 0.262173,0.13109 0.448719,0.30251 0.191589,0.17142 0.191589,0.28739 0,0.0555 -0.05546,0.10587 -0.05042,0.0454 -0.105878,0.0454 -0.08571,0 -0.25209,-0.1563 -0.272257,-0.25713 -0.715935,-0.42351 -0.443678,-0.17142 -0.852063,-0.17142 -0.25209,0 -0.413428,0.11092 -0.156295,0.10588 -0.156295,0.2773 0,0.20671 0.19663,0.50418 0.19663,0.29747 0.665517,0.79156 1.482288,1.57808 1.815047,2.12764 0.347884,0.57981 0.347884,1.11928 0,0.4588 -0.247048,0.86719 -0.247048,0.40838 -0.685685,0.67056 -0.836938,0.49913 -2.041927,0.49913 -1.109196,0 -1.951176,-0.57476 -0.58989,-0.40334 -0.58989,-0.63023 0,-0.0655 0.05042,-0.11596 0.05546,-0.0555 0.126045,-0.0555 z m 10.849029,-5.37455 -0.02521,1.57808 -0.01513,1.49741 0.01513,3.46876 h -3.075496 l 0.03025,-4.01831 -0.01512,-1.36633 -0.01513,-1.15961 -0.665517,0.0151 -0.9529,0.0202 -0.14117,0.005 q -0.242006,0 -0.242006,-0.1815 0,-0.16134 0.14117,-0.18151 0.04033,-0.0101 0.247048,-0.0151 h 6.186285 q 0.322675,0.005 0.383176,0.0303 0.100836,0.0403 0.100836,0.17142 0,0.17142 -0.257131,0.17142 l -0.438637,-0.0151 -1.159613,-0.0202 z"
       id="text3"
       style="font-size:10.3256px;line-height:0.8;font-family:Broadway;-inkscape-font-specification:Broadway;text-align:center;letter-spacing:0.35201px;text-anchor:middle;stroke:#000000;stroke-width:0.997826"
       aria-label="THIS IS A TEST" />
  </g>
</svg>
